<svg width="33" height="42" viewBox="0 0 33 42" fill="none" xmlns="http://www.w3.org/2000/svg">
<path d="M32.1702 11.3715V38.1128C32.1702 40.1681 30.3294 42 28.2651 42H3.90511C1.84085 42 0 40.1681 0 38.1128V3.88723C0 1.83191 1.84085 0 3.90511 0H20.6945C20.9191 0 21.1332 0.0882002 21.2921 0.2457L31.9223 10.7793C32.0812 10.9368 32.1702 11.1489 32.1702 11.3715Z" fill="#FF1943"/>
<path d="M31.7673 11.1426H23.0509C21.9425 11.1426 21.0439 10.2522 21.0439 9.15389V0.293989C21.0439 0.184789 21.1753 0.130189 21.2538 0.207889L31.9199 10.7772C32.0556 10.9116 31.9602 11.1426 31.7673 11.1426Z" fill="white" fill-opacity="0.65"/>
<path d="M9.84473 19.8789V27.4375H8.29199V18.6602H9.72754L9.84473 19.8789ZM13.917 21.7656V21.8887C13.917 22.3496 13.8623 22.7773 13.7529 23.1719C13.6475 23.5625 13.4912 23.9043 13.2842 24.1973C13.0771 24.4863 12.8193 24.7129 12.5107 24.877C12.2061 25.0371 11.8545 25.1172 11.4561 25.1172C11.0654 25.1172 10.7256 25.043 10.4365 24.8945C10.1475 24.7422 9.90332 24.5273 9.7041 24.25C9.50488 23.9727 9.34473 23.6504 9.22363 23.2832C9.10645 22.9121 9.01855 22.5078 8.95996 22.0703V21.6777C9.01855 21.2129 9.10645 20.791 9.22363 20.4121C9.34473 20.0293 9.50488 19.6992 9.7041 19.4219C9.90332 19.1406 10.1455 18.9238 10.4307 18.7715C10.7197 18.6191 11.0576 18.543 11.4443 18.543C11.8467 18.543 12.2002 18.6191 12.5049 18.7715C12.8135 18.9238 13.0732 19.1426 13.2842 19.4277C13.4951 19.7129 13.6533 20.0527 13.7588 20.4473C13.8643 20.8418 13.917 21.2812 13.917 21.7656ZM12.3643 21.8887V21.7656C12.3643 21.4844 12.3389 21.2246 12.2881 20.9863C12.2373 20.7441 12.1592 20.5332 12.0537 20.3535C11.9482 20.1699 11.8115 20.0273 11.6436 19.9258C11.4756 19.8242 11.2725 19.7734 11.0342 19.7734C10.7959 19.7734 10.5908 19.8125 10.4189 19.8906C10.2471 19.9688 10.1064 20.0801 9.99707 20.2246C9.8877 20.3691 9.80176 20.541 9.73926 20.7402C9.68066 20.9355 9.6416 21.1523 9.62207 21.3906V22.3633C9.65723 22.6523 9.72559 22.9121 9.82715 23.1426C9.92871 23.373 10.0771 23.5566 10.2725 23.6934C10.4717 23.8301 10.7295 23.8984 11.0459 23.8984C11.2842 23.8984 11.4873 23.8457 11.6553 23.7402C11.8232 23.6348 11.96 23.4902 12.0654 23.3066C12.1709 23.1191 12.2471 22.9043 12.2939 22.6621C12.3408 22.4199 12.3643 22.1621 12.3643 21.8887ZM18.8506 23.6523V16H20.4092V25H19.0029L18.8506 23.6523ZM14.7783 21.9062V21.7832C14.7783 21.2988 14.833 20.8594 14.9424 20.4648C15.0557 20.0664 15.2197 19.7246 15.4346 19.4395C15.6494 19.1543 15.9092 18.9336 16.2139 18.7773C16.5225 18.6211 16.8721 18.543 17.2627 18.543C17.6416 18.543 17.9717 18.6191 18.2529 18.7715C18.5381 18.9238 18.7803 19.1406 18.9795 19.4219C19.1826 19.7031 19.3447 20.0371 19.4658 20.4238C19.5869 20.8066 19.6748 21.2285 19.7295 21.6895V22.0234C19.6748 22.4727 19.5869 22.8848 19.4658 23.2598C19.3447 23.6348 19.1826 23.9629 18.9795 24.2441C18.7803 24.5215 18.5381 24.7363 18.2529 24.8887C17.9678 25.041 17.6338 25.1172 17.251 25.1172C16.8643 25.1172 16.5166 25.0371 16.208 24.877C15.9033 24.7168 15.6436 24.4922 15.4287 24.2031C15.2178 23.9141 15.0557 23.5742 14.9424 23.1836C14.833 22.793 14.7783 22.3672 14.7783 21.9062ZM16.3311 21.7832V21.9062C16.3311 22.1797 16.3545 22.4355 16.4014 22.6738C16.4482 22.9121 16.5244 23.123 16.6299 23.3066C16.7354 23.4863 16.8701 23.627 17.0342 23.7285C17.2021 23.8301 17.4053 23.8809 17.6436 23.8809C17.9482 23.8809 18.1982 23.8145 18.3936 23.6816C18.5928 23.5449 18.7471 23.3594 18.8564 23.125C18.9658 22.8867 19.0361 22.6191 19.0674 22.3223V21.4023C19.0518 21.168 19.0107 20.9512 18.9443 20.752C18.8818 20.5527 18.792 20.3809 18.6748 20.2363C18.5615 20.0918 18.4209 19.9785 18.2529 19.8965C18.085 19.8145 17.8857 19.7734 17.6553 19.7734C17.417 19.7734 17.2139 19.8262 17.0459 19.9316C16.8779 20.0332 16.7412 20.1758 16.6357 20.3594C16.5303 20.543 16.4521 20.7559 16.4014 20.998C16.3545 21.2402 16.3311 21.502 16.3311 21.7832ZM23.8369 25H22.2783V18.0742C22.2783 17.5977 22.3701 17.1973 22.5537 16.873C22.7373 16.5449 22.999 16.2969 23.3389 16.1289C23.6787 15.9609 24.0791 15.877 24.54 15.877C24.6924 15.877 24.8369 15.8867 24.9736 15.9062C25.1143 15.9258 25.2529 15.9531 25.3896 15.9883L25.3604 17.166C25.2861 17.1465 25.2041 17.1328 25.1143 17.125C25.0283 17.1172 24.9326 17.1133 24.8271 17.1133C24.6162 17.1133 24.4365 17.1504 24.2881 17.2246C24.1396 17.2988 24.0264 17.4082 23.9482 17.5527C23.874 17.6934 23.8369 17.8672 23.8369 18.0742V25ZM25.1201 18.6602V19.7734H21.3232V18.6602H25.1201Z" fill="white"/>
</svg>
